<svg id="Layer_1" data-name="Layer 1" xmlns="http://www.w3.org/2000/svg" viewBox="0 0 167.67 167"><defs><style>.cls-1{fill:none;stroke:#000;stroke-linecap:round;stroke-linejoin:round;stroke-width:4px;}</style></defs><title>icon</title><path class="cls-1" d="M76.25,183.5h82.38a13.88,13.88,0,0,0,.87-4.83h0a14,14,0,0,0-14-14H69.33a14,14,0,0,0-14,14h0a13.88,13.88,0,0,0,.87,4.83H66.68" transform="translate(-23.67 -18.5)"/><rect class="cls-1" x="60.73" y="130.75" width="45.94" height="15.42"/><path class="cls-1" d="M189.33,60.36v70.31A17.33,17.33,0,0,1,172,148H43a17.33,17.33,0,0,1-17.33-17.33V37.83A17.33,17.33,0,0,1,43,20.5H172a17.33,17.33,0,0,1,17.33,17.33V49.75" transform="translate(-23.67 -18.5)"/><rect class="cls-1" x="11.67" y="11.42" width="143.33" height="98.67" rx="7.5"/><line class="cls-1" x1="24.67" y1="69.75" x2="24.67" y2="100"/><line class="cls-1" x1="33.17" y1="84.88" x2="33.17" y2="100"/><line class="cls-1" x1="41.42" y1="60.75" x2="41.42" y2="100"/><line class="cls-1" x1="50.67" y1="92.44" x2="50.67" y2="100"/><polyline class="cls-1" points="142.42 100 94.42 100 86.67 84.88"/><line class="cls-1" x1="102.67" y1="92.02" x2="127.17" y2="92.02"/><polyline class="cls-1" points="22.67 30.25 50.67 30.25 50.67 30.5 55.17 38.5"/><line class="cls-1" x1="22.67" y1="22.25" x2="39.17" y2="22.25"/><line class="cls-1" x1="106.67" y1="24" x2="127.17" y2="24"/><polyline class="cls-1" points="145.92 32.25 108.67 32.75 104.42 42"/><circle class="cls-1" cx="67.33" cy="76.75" r="7.67"/><circle class="cls-1" cx="105.83" cy="76.75" r="7.67"/><path class="cls-1" d="M83.33,95.25H77.67s-2.27-11-1.35-15.13c.83-2.31,3.35-5.4,5.68-5.54,2.83-.16,46.08,0,46.08,0s19.09.67,19.25,7.34a58.67,58.67,0,0,1-2.83,13.33h-7.33" transform="translate(-23.67 -18.5)"/><line class="cls-1" x1="75.73" y1="76.75" x2="97.73" y2="76.75"/><path class="cls-1" d="M83.33,74.51S80.5,60.08,89.17,57.92c6.75-1.69,19.84-1.14,25-.64a5.68,5.68,0,0,1,3.88,2.09c2.61,3.24,7,10.41,8.28,15.14" transform="translate(-23.67 -18.5)"/><line class="cls-1" x1="67.42" y1="56.01" x2="67.42" y2="39.86"/><line class="cls-1" x1="82.33" y1="38.86" x2="82.33" y2="56.01"/></svg>